<svg width="18.000000" height="18.000000" viewBox="0 0 18 18" fill="none" xmlns="http://www.w3.org/2000/svg" xmlns:xlink="http://www.w3.org/1999/xlink">
	<desc>
			Created with Pixso.
	</desc>
	<defs>
		<clipPath id="clip33_7008">
			<rect id="instagram 1" width="18.000000" height="18.000000" fill="white" fill-opacity="0"/>
		</clipPath>
	</defs>
	<rect id="instagram 1" width="18.000000" height="18.000000" fill="#FFFFFF" fill-opacity="0"/>
	<g clip-path="url(#clip33_7008)">
		<path id="Vector" d="M12.7499 1.5C14.8209 1.5 16.4999 3.17871 16.4999 5.25L16.4999 12.75C16.4999 14.8213 14.8209 16.5 12.7499 16.5L5.24988 16.5C3.17883 16.5 1.49988 14.8213 1.49988 12.75L1.49988 5.25C1.49988 3.17871 3.17883 1.5 5.24988 1.5L12.7499 1.5Z" stroke="#4E76C6" stroke-opacity="1.000000" stroke-width="2.000000" stroke-linejoin="round"/>
		<path id="Vector" d="M11.6941 10.3506C11.4034 10.9102 10.9437 11.3652 10.38 11.6484C9.81641 11.9326 9.17761 12.0312 8.55469 11.9307C7.93164 11.8301 7.35608 11.5361 6.90991 11.0898C6.46375 10.6436 6.16956 10.0684 6.06934 9.44531C5.96912 8.82227 6.06787 8.18359 6.35156 7.62012C6.63525 7.05664 7.08948 6.59668 7.64954 6.30566C8.20959 6.01562 8.84717 5.9082 9.47131 6.00098C10.108 6.0957 10.6974 6.39258 11.1526 6.84766C11.6077 7.30273 11.9044 7.8916 11.9988 8.52832C12.0913 9.15332 11.9847 9.79004 11.6941 10.3506Z" stroke="#4E76C6" stroke-opacity="1.000000" stroke-width="2.000000" stroke-linejoin="round"/>
		<path id="Vector" d="" stroke="#4E76C6" stroke-opacity="1.000000" stroke-width="2.000000" stroke-linejoin="round"/>
	</g>
</svg>
