<svg width="18.000000" height="18.000000" viewBox="0 0 18 18" fill="none" xmlns="http://www.w3.org/2000/svg" xmlns:xlink="http://www.w3.org/1999/xlink">
	<desc>
			Created with Pixso.
	</desc>
	<defs>
		<clipPath id="clip33_6998">
			<rect id="pinterest 1" width="18.000000" height="18.000000" fill="white" fill-opacity="0"/>
		</clipPath>
	</defs>
	<rect id="pinterest 1" width="18.000000" height="18.000000" fill="#FFFFFF" fill-opacity="0"/>
	<g clip-path="url(#clip33_6998)">
		<path id="Vector" d="M9.24451 0C4.3103 0.000976562 1.6875 3.16211 1.6875 6.60938C1.6875 8.20703 2.58081 10.2012 4.01099 10.834C4.41895 11.0176 4.36499 10.793 4.71594 9.45117C4.74377 9.33887 4.72949 9.24219 4.63953 9.1377C2.59497 6.77344 4.24048 1.91211 8.95276 1.91211C15.7725 1.91211 14.4983 11.3486 10.1393 11.3486C9.01575 11.3486 8.17871 10.4658 8.44348 9.375C8.76453 8.0752 9.39294 6.67773 9.39294 5.74121C9.39294 3.37988 5.87549 3.73047 5.87549 6.8584C5.87549 7.8252 6.21753 8.47754 6.21753 8.47754C6.21753 8.47754 5.08569 13.0498 4.87573 13.9043C4.52026 15.3506 4.92371 17.6914 4.95898 17.8926C4.98071 18.0039 5.10522 18.0391 5.17505 17.9473C5.28674 17.8008 6.65479 15.8496 7.03796 14.4395C7.17749 13.9248 7.74976 11.8398 7.74976 11.8398C8.12695 12.5215 9.21448 13.0908 10.3733 13.0908C13.8202 13.0908 16.3118 10.0615 16.3118 6.30176C16.2998 2.69727 13.215 0 9.24451 0L9.24451 0Z" fill="#4E76C6" fill-opacity="1.000000" fill-rule="nonzero"/>
	</g>
</svg>
