<svg width="18.000000" height="18.000000" viewBox="0 0 18 18" fill="none" xmlns="http://www.w3.org/2000/svg" xmlns:xlink="http://www.w3.org/1999/xlink">
	<desc>
			Created with Pixso.
	</desc>
	<defs>
		<clipPath id="clip33_7004">
			<rect id="youtube 1" width="18.000000" height="18.000000" fill="white" fill-opacity="0"/>
		</clipPath>
	</defs>
	<rect id="youtube 1" width="18.000000" height="18.000000" fill="#FFFFFF" fill-opacity="0"/>
	<g clip-path="url(#clip33_7004)">
		<path id="Vector" d="M17.082 4.78223C16.8875 4.05957 16.3175 3.48926 15.5947 3.29492C14.2742 2.93359 8.99194 2.93359 8.99194 2.93359C8.99194 2.93359 3.70996 2.93359 2.38953 3.28125C1.68054 3.47559 1.09668 4.05957 0.902222 4.78223C0.554688 6.10254 0.554688 8.84082 0.554688 8.84082C0.554688 8.84082 0.554688 11.5938 0.902222 12.9004C1.09692 13.623 1.66663 14.1924 2.38953 14.3877C3.72388 14.749 8.99219 14.749 8.99219 14.749C8.99219 14.749 14.2742 14.749 15.5947 14.4014C16.3176 14.207 16.8875 13.6367 17.0822 12.9141C17.4296 11.5938 17.4296 8.85547 17.4296 8.85547C17.4296 8.85547 17.4435 6.10254 17.082 4.78223ZM7.3103 11.3711L7.3103 6.31152L11.7026 8.84082L7.3103 11.3711Z" fill="#4E76C6" fill-opacity="1.000000" fill-rule="nonzero"/>
	</g>
</svg>
