<svg width="25.000000" height="25.000000" viewBox="0 0 25 25" fill="#72716E" xmlns="http://www.w3.org/2000/svg" xmlns:xlink="http://www.w3.org/1999/xlink">
	<desc>
			Created with Pixso.
	</desc>
	<defs>
		<clipPath id="clip128_5462">
			<rect id="6260245_bin_delete_recycle_remove_trash_icon 1" width="15.000000" height="15.000000" transform="translate(5.000000 5.000000)" fill="white" fill-opacity="0"/>
		</clipPath>
	</defs>
	<rect id="Rectangle 2" rx="12.500000" width="25.000000" height="25.000000" fill="#F5F3F0" fill-opacity="1.000000"/>
	<rect id="6260245_bin_delete_recycle_remove_trash_icon 1" width="15.000000" height="15.000000" transform="translate(5.000000 5.000000)" fill="#FFFFFF" fill-opacity="0"/>
	<g clip-path="url(#clip128_5462)" fill="current">
		<path id="Vector" d="M17.5361 8.43555C17.4922 8.3877 17.4395 8.34863 17.3789 8.32227C17.3193 8.29492 17.2549 8.28125 17.1895 8.28125L7.81445 8.28125C7.74902 8.28125 7.68457 8.29492 7.625 8.32227C7.56543 8.34863 7.51172 8.3877 7.46777 8.43555C7.42285 8.48438 7.38965 8.54102 7.36816 8.60352C7.34766 8.66602 7.33984 8.73145 7.3457 8.79688L8.20801 17.3145C8.24023 17.665 8.40234 17.9902 8.66211 18.2275C8.92285 18.4648 9.2627 18.5947 9.61426 18.5938L15.3945 18.5938C15.7451 18.5957 16.085 18.4648 16.3447 18.2295C16.6055 17.9932 16.7676 17.6689 16.8008 17.3184L17.6582 8.79688C17.6641 8.73145 17.6562 8.66602 17.6357 8.60352C17.6143 8.54102 17.5811 8.48438 17.5361 8.43555ZM15.8633 17.2295C15.8525 17.3467 15.7988 17.4551 15.7119 17.5342C15.625 17.6133 15.5117 17.6562 15.3945 17.6562L9.60938 17.6562C9.49219 17.6562 9.37793 17.6123 9.29102 17.5322C9.2041 17.4521 9.15039 17.3428 9.14062 17.2246L8.33496 9.21875L16.6689 9.21875L15.8633 17.2295Z" fill="current" fill-opacity="1.000000" fill-rule="nonzero"/>
		<path id="Vector" d="M10.1562 7.34375L14.8438 7.34375C14.9678 7.34375 15.0869 7.29395 15.1748 7.20605C15.2627 7.11816 15.3125 6.99902 15.3125 6.875C15.3125 6.75098 15.2627 6.63184 15.1748 6.54395C15.0869 6.45605 14.9678 6.40625 14.8438 6.40625L10.1562 6.40625C10.0322 6.40625 9.91309 6.45605 9.8252 6.54395C9.7373 6.63184 9.6875 6.75098 9.6875 6.875C9.6875 6.99902 9.7373 7.11816 9.8252 7.20605C9.91309 7.29395 10.0322 7.34375 10.1562 7.34375Z" fill="current" fill-opacity="1.000000" fill-rule="nonzero"/>
		<path id="Vector" d="M11.0938 15.7812C11.2178 15.7812 11.3369 15.7314 11.4248 15.6436C11.5127 15.5557 11.5625 15.4365 11.5625 15.3125L11.5625 11.5625C11.5625 11.4385 11.5127 11.3193 11.4248 11.2314C11.3369 11.1436 11.2178 11.0938 11.0938 11.0938C10.9697 11.0938 10.8506 11.1436 10.7627 11.2314C10.6748 11.3193 10.625 11.4385 10.625 11.5625L10.625 15.3125C10.625 15.4365 10.6748 15.5557 10.7627 15.6436C10.8506 15.7314 10.9697 15.7812 11.0938 15.7812Z" fill="current" fill-opacity="1.000000" fill-rule="nonzero"/>
		<path id="Vector" d="M13.9062 15.7812C14.0303 15.7812 14.1494 15.7314 14.2373 15.6436C14.3252 15.5557 14.375 15.4365 14.375 15.3125L14.375 11.5625C14.375 11.4385 14.3252 11.3193 14.2373 11.2314C14.1494 11.1436 14.0303 11.0938 13.9062 11.0938C13.7822 11.0938 13.6631 11.1436 13.5752 11.2314C13.4873 11.3193 13.4375 11.4385 13.4375 11.5625L13.4375 15.3125C13.4375 15.4365 13.4873 15.5557 13.5752 15.6436C13.6631 15.7314 13.7822 15.7812 13.9062 15.7812Z" fill="current" fill-opacity="1.000000" fill-rule="nonzero"/>
	</g>
</svg>
