<svg width="52.000000" height="50.000000" viewBox="0 0 52 50" fill="none" xmlns="http://www.w3.org/2000/svg" xmlns:xlink="http://www.w3.org/1999/xlink">
	<desc>
			Created with Pixso.
	</desc>
	<defs>
		<clipPath id="clip128_4669">
			<rect id="mollen_rgb_sign_on_transp" width="52.000000" height="50.000000" fill="white" fill-opacity="0"/>
		</clipPath>
	</defs>
	<rect id="mollen_rgb_sign_on_transp" width="52.000000" height="50.000000" fill="#FFFFFF" fill-opacity="0"/>
	<g clip-path="url(#clip128_4669)">
		<path id="mollen rgb sign on transp" d="M30.3657 24.0176C30.9844 24.4697 31.8311 24.5264 32.7588 24.5557C33.9272 24.5986 35.2461 24.7402 36.5815 24.9355C37.793 25.1123 39.2163 25.4863 40.4053 25.9648C42.6177 26.8887 44.561 28.0225 46.6719 30.2139C46.8022 30.3496 47.0039 30.4033 47.1797 30.3369C49.4653 29.4834 50.7871 27.8223 51.354 26.3564C51.9473 24.8271 52.0205 23.1738 51.48 21.5449C50.9907 20.0771 50.0752 18.8389 48.7925 18.0186C49.3452 16.6025 49.3574 15.0645 48.8862 13.5908C48.3643 11.9561 47.3286 10.6611 45.9478 9.77148C44.5674 8.88184 42.3994 8.30176 39.936 9.02441C37.5522 9.72266 35.0117 11.5029 33.4097 13.252C31.6978 15.123 30.5635 17.2246 29.7603 19.251C29.4551 20.0566 29.1548 21.1553 29.2588 22.0371C29.373 22.8564 29.7114 23.5459 30.3657 24.0176ZM28.6387 29.2012C28.3975 29.9277 28.606 30.748 28.8638 31.6367C29.1846 32.7568 29.4565 34.0508 29.6826 35.3779C29.8892 36.5801 29.9712 38.0449 29.8823 39.3193C29.6851 41.7031 29.2031 43.8955 27.7642 46.5732C27.6753 46.7393 27.6865 46.9463 27.8042 47.0938C29.3252 48.9961 31.3179 49.7354 32.8931 49.8203C34.5342 49.9092 36.1353 49.4688 37.522 48.4521C38.772 47.5361 39.6709 46.2842 40.0566 44.8145C41.5776 44.9023 43.0503 44.4375 44.3105 43.5361C45.7095 42.5352 46.625 41.1533 47.0469 39.5703C47.4692 37.9873 47.353 35.752 45.9009 33.6396C44.5 31.5967 42.0161 29.7393 39.8506 28.7598C37.5361 27.7158 35.1807 27.29 32.999 27.1543C32.1367 27.1143 30.9951 27.1689 30.186 27.54C29.439 27.9014 28.8857 28.4355 28.6387 29.2012ZM23.1582 29.166C22.3906 29.1621 21.6724 29.6133 20.9043 30.1318C19.9346 30.7822 18.7837 31.4404 17.5874 32.0645C16.5039 32.6318 15.1318 33.1621 13.8877 33.4717C11.5527 34.0215 9.31152 34.2422 6.31152 33.7061C6.12598 33.6729 5.93213 33.7471 5.82812 33.9043C4.48242 35.9346 4.39307 38.0518 4.79834 39.5703C5.22119 41.1543 6.13623 42.5352 7.53467 43.5361C8.79492 44.4375 10.2666 44.9023 11.7891 44.8145C12.1753 46.2842 13.0732 47.5361 14.3232 48.4521C15.71 49.4688 17.311 49.9092 18.9526 49.8203C20.5938 49.7314 22.6914 48.9297 24.2578 46.9014C25.7739 44.9414 26.7788 42.0127 27.0444 39.6592C27.3252 37.1416 27.0039 34.7773 26.459 32.667C26.231 31.8369 25.8257 30.7725 25.2217 30.1191C24.646 29.5234 23.9653 29.1641 23.1582 29.166ZM25.9531 20.7783C26.5762 20.332 26.8911 19.5459 27.2065 18.6758C27.6079 17.582 28.1509 16.375 28.75 15.1699C29.2925 14.0762 30.0898 12.8428 30.9136 11.8633C32.4785 10.0508 34.1611 8.55957 36.9038 7.23535C37.0752 7.15332 37.1875 6.97949 37.1792 6.79199C37.0713 4.36133 35.8945 2.5957 34.6709 1.60449C33.3945 0.571289 31.8394 -0.0107422 30.1187 -0.000976562C28.5664 0.0078125 27.1021 0.494141 25.9229 1.45801C24.7432 0.494141 23.2788 0.0078125 21.7271 -0.000976562C20.0059 -0.0107422 18.4507 0.571289 17.1753 1.60449C15.8994 2.6377 14.6753 4.51465 14.6045 7.07422C14.5337 9.54785 15.4478 12.5068 16.6211 14.5664C17.8779 16.7666 19.5327 18.4922 21.2178 19.8789C21.8916 20.418 22.8477 21.042 23.7212 21.2148C24.5386 21.3604 25.3013 21.2529 25.9531 20.7783ZM21.4985 23.96C21.2651 23.2314 20.6128 22.6904 19.8804 22.1221C18.9595 21.4033 17.9766 20.5166 17.0112 19.5752C16.1353 18.7236 15.2051 17.5869 14.5249 16.5029C13.2793 14.459 12.376 12.4033 11.9609 9.39355C11.9351 9.20703 11.8042 9.04688 11.6221 8.99609C9.26904 8.34766 7.22119 8.91797 5.89697 9.77148C4.51709 10.6611 3.48145 11.9561 2.95898 13.5908C2.48779 15.0645 2.49951 16.6025 3.05371 18.0186C1.77002 18.8389 0.853516 20.0771 0.365723 21.5449C-0.175781 23.1738 -0.101074 24.8271 0.490723 26.3564C1.08252 27.8848 2.49561 29.625 4.91504 30.4834C7.25439 31.3145 10.3594 31.3623 12.687 30.8867C15.1753 30.375 17.3325 29.3389 19.1777 28.1709C19.8994 27.6982 20.79 26.9854 21.2261 26.2109C21.6172 25.4805 21.7495 24.7246 21.4985 23.96Z" fill="#FFFFFF" fill-opacity="1.000000" fill-rule="evenodd"/>
	</g>
</svg>
