<svg width="103.000000" height="17.301758" viewBox="0 0 103 17.3018" fill="none" xmlns="http://www.w3.org/2000/svg" xmlns:xlink="http://www.w3.org/1999/xlink">
	<desc>
			Created with Pixso.
	</desc>
	<defs/>
	<path id="Fill 3" d="M97.7852 0.333008L97.7852 7.78516L87.7271 0.478516C87.582 0.374023 87.48 0.333008 87.3345 0.333008C87.1704 0.333008 86.9434 0.436523 86.9434 0.749023L86.9434 16.9688L92.1587 16.9688L92.1587 9.76953L102.218 16.8438C102.341 16.9268 102.465 16.9688 102.588 16.9688C102.814 16.9688 103 16.8438 103 16.5527L103 0.333008L97.7852 0.333008ZM18.6748 0.333008C18.5303 0.333008 18.4272 0.395508 18.3447 0.478516L9.52295 8.50488L0.700684 0.478516C0.597656 0.395508 0.515137 0.333008 0.371094 0.333008C0.185547 0.333008 0 0.458008 0 0.749023L0 16.9688L5.21484 16.9688L5.21484 10.9434L9.52295 14.8477L13.8101 10.9639L13.8101 16.9688L19.0254 16.9688L19.0254 0.749023C19.0254 0.436523 18.8398 0.333008 18.6748 0.333008ZM34.2515 8.62988C34.2515 6.36328 32.7056 4.76172 30.459 4.76172C28.2124 4.76172 26.6665 6.36328 26.6665 8.62988C26.6665 10.8965 28.2124 12.5391 30.459 12.5391C32.7056 12.5391 34.2515 10.8965 34.2515 8.62988ZM39.5903 8.62988C39.5903 13.7246 35.9419 17.3018 30.459 17.3018C24.9966 17.3018 21.3276 13.7246 21.3276 8.62988C21.3276 3.53516 24.9966 0 30.459 0C35.9419 0 39.5903 3.53516 39.5903 8.62988ZM47.0869 0.333008L41.8926 0.333008L41.8926 16.9688L54.4043 16.9688L54.4043 12.082L47.0869 12.082L47.0869 0.333008ZM61.2554 0.333008L56.061 0.333008L56.061 16.9688L68.5732 16.9688L68.5732 12.082L61.2554 12.082L61.2554 0.333008ZM75.5962 12.082L84.1094 12.082L84.1094 16.9688L70.3813 16.9688L70.3813 0.333008L84.0073 0.333008L84.0073 4.80371L75.5962 4.80371L75.5962 6.6748L83.0796 6.6748L83.0796 10.1689L75.5962 10.1689L75.5962 12.082Z" fill="current" fill-opacity="1.000000" fill-rule="evenodd"/>
</svg>
