<svg width="55.000000" height="67.000000" viewBox="0 0 55 67" fill="none" xmlns="http://www.w3.org/2000/svg" xmlns:xlink="http://www.w3.org/1999/xlink">
	<desc>
			Created with Pixso.
	</desc>
	<defs/>
	<path id="Vector" d="M27.5 67C26.47 67 25.64 66.17 25.64 65.15C25.64 60.17 19.79 54.76 14.75 51.62C5.65 46.87 0 37.59 0 27.37C0 12.27 12.33 0 27.5 0C42.66 0 55 12.27 55 27.37C55 37.59 49.34 46.87 40.24 51.62C35.2 54.76 29.35 60.17 29.35 65.15C29.35 66.17 28.52 67 27.5 67Z" fill="#4E76C6" fill-opacity="1.000000" fill-rule="evenodd"/>
	<path id="mollen rgb sign on transp" d="M29.3 28.12C29.55 28.31 29.89 28.33 30.26 28.34C30.74 28.36 31.27 28.42 31.81 28.5C32.3 28.58 32.88 28.74 33.36 28.94C34.26 29.33 35.05 29.8 35.9 30.73C35.95 30.79 36.03 30.81 36.1 30.78C37.03 30.42 37.57 29.72 37.8 29.1C38.04 28.46 38.07 27.76 37.85 27.08C37.65 26.46 37.28 25.93 36.76 25.59C36.98 24.99 36.99 24.34 36.8 23.72C36.58 23.03 36.17 22.49 35.6 22.11C35.05 21.74 34.17 21.49 33.17 21.8C32.21 22.09 31.17 22.84 30.53 23.58C29.83 24.37 29.37 25.25 29.05 26.11C28.92 26.45 28.8 26.91 28.85 27.28C28.89 27.63 29.03 27.92 29.3 28.12ZM28.6 30.3C28.5 30.61 28.58 30.95 28.69 31.33C28.82 31.8 28.92 32.34 29.02 32.9C29.1 33.41 29.14 34.03 29.1 34.57C29.02 35.57 28.82 36.49 28.24 37.62C28.21 37.69 28.21 37.78 28.26 37.84C28.87 38.64 29.68 38.96 30.32 38.99C30.98 39.03 31.63 38.84 32.19 38.41C32.7 38.03 33.07 37.5 33.22 36.88C33.83 36.92 34.43 36.72 34.94 36.34C35.51 35.92 35.88 35.34 36.05 34.67C36.22 34 36.17 33.06 35.59 32.17C35.02 31.31 34.01 30.53 33.14 30.12C32.2 29.68 31.25 29.5 30.36 29.44C30.01 29.42 29.55 29.45 29.22 29.6C28.92 29.75 28.69 29.98 28.6 30.3ZM26.37 30.29C26.07 30.29 25.77 30.47 25.46 30.69C25.07 30.97 24.6 31.25 24.12 31.51C23.68 31.75 23.12 31.97 22.62 32.1C21.67 32.33 20.77 32.43 19.55 32.2C19.48 32.19 19.4 32.22 19.35 32.28C18.81 33.14 18.78 34.03 18.94 34.67C19.11 35.34 19.48 35.92 20.05 36.34C20.56 36.72 21.16 36.92 21.77 36.88C21.92 37.5 22.29 38.03 22.8 38.41C23.36 38.84 24.01 39.03 24.67 38.99C25.33 38.95 26.19 38.62 26.82 37.76C27.44 36.93 27.84 35.7 27.95 34.71C28.06 33.65 27.93 32.65 27.71 31.76C27.62 31.41 27.46 30.96 27.21 30.69C26.98 30.44 26.7 30.29 26.37 30.29ZM27.51 26.75C27.76 26.56 27.89 26.23 28.01 25.87C28.18 25.4 28.4 24.9 28.64 24.39C28.86 23.93 29.18 23.41 29.52 23C30.15 22.23 30.83 21.6 31.94 21.04C32.01 21.01 32.06 20.94 32.05 20.86C32.01 19.83 31.53 19.09 31.04 18.67C30.52 18.24 29.89 17.99 29.19 18C28.57 18 27.97 18.2 27.5 18.61C27.02 18.2 26.42 18 25.8 18C25.1 17.99 24.47 18.24 23.95 18.67C23.44 19.11 22.94 19.9 22.91 20.98C22.88 22.02 23.25 23.27 23.73 24.13C24.24 25.06 24.91 25.79 25.59 26.37C25.86 26.6 26.25 26.86 26.6 26.94C26.93 27 27.25 26.95 27.51 26.75ZM25.7 28.09C25.61 27.79 25.34 27.56 25.05 27.32C24.67 27.02 24.28 26.64 23.89 26.25C23.53 25.89 23.16 25.41 22.88 24.95C22.37 24.09 22.01 23.22 21.84 21.95C21.83 21.88 21.78 21.81 21.7 21.79C20.75 21.51 19.92 21.75 19.38 22.11C18.82 22.49 18.41 23.03 18.19 23.72C18 24.34 18.01 24.99 18.23 25.59C17.71 25.93 17.34 26.46 17.14 27.08C16.92 27.76 16.96 28.46 17.19 29.1C17.43 29.75 18.01 30.48 18.99 30.84C19.93 31.19 21.19 31.21 22.14 31.01C23.14 30.8 24.01 30.36 24.76 29.87C25.05 29.67 25.42 29.37 25.59 29.04C25.75 28.73 25.8 28.41 25.7 28.09Z" fill="#FFFFFF" fill-opacity="1.000000" fill-rule="evenodd"/>
</svg>
