<svg width="32" height="32" viewBox="0 0 32 32" fill="none" xmlns="http://www.w3.org/2000/svg">
<circle opacity="0.4" cx="16" cy="16" r="16" fill="#707E8D"/>
<path fill-rule="evenodd" clip-rule="evenodd" d="M9.90234 15.0479C9.90234 12.1813 12.2262 9.85742 15.0928 9.85742C17.9594 9.85742 20.2833 12.1813 20.2833 15.0479C20.2833 17.9145 17.9594 20.2384 15.0928 20.2384C12.2262 20.2384 9.90234 17.9145 9.90234 15.0479ZM15.0928 7.85742C11.1216 7.85742 7.90234 11.0767 7.90234 15.0479C7.90234 19.0191 11.1216 22.2384 15.0928 22.2384C17.0098 22.2384 18.7516 21.4882 20.0406 20.2654C20.0915 20.3417 20.1539 20.4122 20.2275 20.4744L23.219 23.0023L23.9829 23.6477L25.2737 22.1201L24.5099 21.4746L21.5183 18.9467C21.4328 18.8745 21.3387 18.819 21.2401 18.7801C21.902 17.6921 22.2833 16.4145 22.2833 15.0479C22.2833 11.0767 19.064 7.85742 15.0928 7.85742Z" fill="white"/>
</svg>
